<svg width="46" height="47" viewBox="0 0 46 47" fill="none" xmlns="http://www.w3.org/2000/svg">
<g clip-path="url(#clip0_2540_3476)">
<path d="M31.8525 0.5C31.9595 0.5 32.0666 0.5 32.1797 0.5C32.4423 3.74402 31.2041 6.16794 29.6992 7.92326C28.2226 9.66647 26.2007 11.3572 22.9304 11.1006C22.7122 7.90307 23.9525 5.65892 25.4553 3.90763C26.8491 2.27552 29.4043 0.82319 31.8525 0.5Z" fill="black"/>
<path d="M41.7521 34.2653C41.7521 34.2976 41.7521 34.3259 41.7521 34.3562C40.8331 37.1397 39.5221 39.5252 37.9223 41.7391C36.4619 43.7489 34.6723 46.4536 31.4767 46.4536C28.7155 46.4536 26.8814 44.6781 24.0514 44.6296C21.0579 44.5811 19.4116 46.1143 16.6746 46.5001C16.3615 46.5001 16.0484 46.5001 15.7414 46.5001C13.7316 46.2092 12.1096 44.6175 10.9279 43.1833C7.44352 38.9455 4.75094 33.4715 4.25 26.4663C4.25 25.7796 4.25 25.0948 4.25 24.408C4.46209 19.3945 6.89814 15.3183 10.1361 13.3428C11.845 12.2924 14.1941 11.3976 16.81 11.7976C17.931 11.9713 19.0763 12.3551 20.0802 12.7348C21.0316 13.1004 22.2214 13.7488 23.3485 13.7145C24.112 13.6923 24.8715 13.2943 25.6411 13.0136C27.8954 12.1995 30.1052 11.2663 33.0179 11.7046C36.5185 12.2339 39.003 13.7892 40.5381 16.1889C37.5769 18.0735 35.2358 20.9135 35.6358 25.7634C35.9913 30.1689 38.5526 32.7463 41.7521 34.2653Z" fill="black"/>
</g>
<defs>
<clipPath id="clip0_2540_3476">
<rect width="46" height="46" fill="white" transform="translate(0 0.5)"/>
</clipPath>
</defs>
</svg>
