<svg width="46" height="47" viewBox="0 0 46 47" fill="none" xmlns="http://www.w3.org/2000/svg">
<g clip-path="url(#clip0_2540_3470)">
<path d="M46 23.5C46 34.9802 37.5888 44.4956 26.5938 46.2206V30.1484H31.9529L32.9727 23.5H26.5938V19.1857C26.5938 17.3664 27.485 15.5938 30.342 15.5938H33.2422V9.93359C33.2422 9.93359 30.6098 9.48438 28.0932 9.48438C22.8401 9.48438 19.4062 12.6684 19.4062 18.4328V23.5H13.5664V30.1484H19.4062V46.2206C8.41117 44.4956 0 34.9802 0 23.5C0 10.7979 10.2979 0.5 23 0.5C35.7021 0.5 46 10.7979 46 23.5Z" fill="#1877F2"/>
<path d="M31.9529 30.1484L32.9727 23.5H26.5938V19.1856C26.5938 17.3667 27.4848 15.5938 30.3419 15.5938H33.2422V9.93359C33.2422 9.93359 30.6101 9.48438 28.0937 9.48438C22.84 9.48438 19.4062 12.6684 19.4062 18.4328V23.5H13.5664V30.1484H19.4062V46.2205C20.5773 46.4042 21.7774 46.5 23 46.5C24.2226 46.5 25.4227 46.4042 26.5938 46.2205V30.1484H31.9529Z" fill="white"/>
</g>
<defs>
<clipPath id="clip0_2540_3470">
<rect width="46" height="46" fill="white" transform="translate(0 0.5)"/>
</clipPath>
</defs>
</svg>
