<svg width="23" height="22" viewBox="0 0 23 22" fill="none" xmlns="http://www.w3.org/2000/svg">
<path d="M16.5949 2.54675C16.0486 2.95161 15.6944 3.60111 15.6944 4.33333C15.6944 5.56063 14.6995 6.55556 13.4722 6.55556C12.2449 6.55556 11.25 7.55048 11.25 8.77778C11.25 10.0051 12.2449 11 13.4722 11C14.6995 11 15.6944 11.9949 15.6944 13.2222C15.6944 14.4495 16.6894 15.4444 17.9167 15.4444H20.2105M16.5949 2.54675C15.0489 1.56715 13.2157 1 11.25 1C6.10272 1 1.86375 4.88894 1.31103 9.88889M16.5949 2.54675C19.3927 4.31946 21.25 7.44283 21.25 11C21.25 16.5228 16.7728 21 11.25 21C8.86856 21 6.68155 20.1676 4.96407 18.7778M4.96407 18.7778L7.91667 18.7778C9.14397 18.7778 10.1389 17.7829 10.1389 16.5556C10.1389 15.3283 9.14397 14.3333 7.91667 14.3333C6.68937 14.3333 5.69445 13.3384 5.69445 12.1111C5.69445 10.8838 4.69952 9.88889 3.47222 9.88889H1.31103M4.96407 18.7778C2.69852 16.9445 1.25 14.1414 1.25 11C1.25 10.6244 1.2707 10.2537 1.31103 9.88889" stroke="white" stroke-width="2" stroke-linecap="round"/>
</svg>
