<svg width="40" height="41" viewBox="0 0 40 41" fill="none" xmlns="http://www.w3.org/2000/svg">
<g clip-path="url(#clip0_2540_3483)">
<path d="M38.4897 17.0226L22.1741 17.0219C21.4536 17.0219 20.8696 17.6058 20.8696 18.3262V23.5383C20.8696 24.2586 21.4536 24.8427 22.174 24.8427H31.362C30.3559 27.4537 28.4781 29.6404 26.0823 31.0297L30 37.8117C36.2845 34.1771 40 27.7998 40 20.6609C40 19.6444 39.9251 18.9178 39.7753 18.0996C39.6613 17.4779 39.1217 17.0226 38.4897 17.0226Z" fill="#167EE6"/>
<path d="M20 32.6739C15.5036 32.6739 11.5783 30.2172 9.47007 26.5818L2.68835 30.4907C6.13953 36.4721 12.6047 40.5 20 40.5C23.6279 40.5 27.0511 39.5232 30 37.8209V37.8116L26.0823 31.0296C24.2902 32.069 22.2165 32.6739 20 32.6739Z" fill="#12B347"/>
<path d="M30 37.821V37.8117L26.0823 31.0297C24.2902 32.069 22.2166 32.674 20 32.674V40.5001C23.6279 40.5001 27.0512 39.5233 30 37.821Z" fill="#0F993E"/>
<path d="M7.82609 20.5C7.82609 18.2837 8.43094 16.2101 9.47008 14.4182L2.68836 10.5093C0.976719 13.4489 0 16.8628 0 20.5C0 24.1372 0.976719 27.5511 2.68836 30.4907L9.47008 26.5818C8.43094 24.7898 7.82609 22.7163 7.82609 20.5Z" fill="#FFD500"/>
<path d="M20 8.32609C22.9321 8.32609 25.6254 9.36797 27.7291 11.101C28.248 11.5285 29.0023 11.4977 29.4777 11.0223L33.1707 7.3293C33.7101 6.78992 33.6716 5.90703 33.0955 5.40719C29.5709 2.34945 24.9849 0.5 20 0.5C12.6047 0.5 6.13953 4.52789 2.68835 10.5093L9.47007 14.4182C11.5783 10.7828 15.5036 8.32609 20 8.32609Z" fill="#FF4B26"/>
<path d="M27.7291 11.101C28.248 11.5285 29.0024 11.4977 29.4777 11.0223L33.1707 7.3293C33.71 6.78992 33.6716 5.90703 33.0955 5.40719C29.5709 2.34938 24.9849 0.5 20 0.5V8.32609C22.932 8.32609 25.6254 9.36797 27.7291 11.101Z" fill="#D93F21"/>
</g>
<defs>
<clipPath id="clip0_2540_3483">
<rect width="40" height="40" fill="white" transform="translate(0 0.5)"/>
</clipPath>
</defs>
</svg>
