<svg width="25" height="24" viewBox="0 0 25 24" fill="none" xmlns="http://www.w3.org/2000/svg">
<path d="M18.3899 21.62C17.5099 21.88 16.4699 22 15.2499 22H9.24986C8.02986 22 6.98986 21.88 6.10986 21.62C6.32986 19.02 8.99986 16.97 12.2499 16.97C15.4999 16.97 18.1699 19.02 18.3899 21.62Z" stroke="white" stroke-width="2" stroke-linecap="round" stroke-linejoin="round"/>
<path d="M15.25 2H9.25C4.25 2 2.25 4 2.25 9V15C2.25 18.78 3.39 20.85 6.11 21.62C6.33 19.02 9 16.97 12.25 16.97C15.5 16.97 18.17 19.02 18.39 21.62C21.11 20.85 22.25 18.78 22.25 15V9C22.25 4 20.25 2 15.25 2ZM12.25 14.17C10.27 14.17 8.67 12.56 8.67 10.58C8.67 8.60002 10.27 7 12.25 7C14.23 7 15.83 8.60002 15.83 10.58C15.83 12.56 14.23 14.17 12.25 14.17Z" stroke="white" stroke-width="2" stroke-linecap="round" stroke-linejoin="round"/>
<path d="M15.8299 10.58C15.8299 12.56 14.2299 14.17 12.2499 14.17C10.2699 14.17 8.66992 12.56 8.66992 10.58C8.66992 8.60002 10.2699 7 12.2499 7C14.2299 7 15.8299 8.60002 15.8299 10.58Z" stroke="white" stroke-width="2" stroke-linecap="round" stroke-linejoin="round"/>
</svg>
